<svg width="93" height="78" viewBox="0 0 93 78" fill="none" xmlns="http://www.w3.org/2000/svg">
<path d="M57.2734 0C56.1068 0.166667 53.8734 1.5 54.2734 5.5C54.7734 10.5 52.2734 11.5 50.2734 12C48.2734 12.5 46.7734 13 47.2734 18.5C47.7734 24 44.2734 24.5 41.7734 25C39.2734 25.5 38.2734 26.5 38.7734 35" stroke="#AE8459" stroke-width="2" stroke-linecap="round" stroke-linejoin="round"/>
<path d="M91.2734 49C90.7734 49.8333 88.9734 51.2 85.7734 50C81.7734 48.5 78.7734 48.5 76.7734 53C74.7734 57.5 74.2734 61 68.2734 59C62.2734 57 60.7734 59 59.7734 63C58.7734 67 56.7734 69.5 52.2734 67.5C47.7734 65.5 43.2734 65.5 42.2734 70C41.2734 74.5 41.2734 76.5 37.7734 76" stroke="#E08345" stroke-width="2" stroke-linecap="round" stroke-linejoin="round"/>
<path d="M5.27344 28.5C5.10677 29.6667 5.07344 32.4 6.27344 34C7.77344 36 7.27344 37 4.77344 38.5C2.27344 40 2.77344 42 4.27344 44.5C5.77344 47 4.77344 47.5 2.77344 49C0.773438 50.5 0.273438 51 2.27344 53.5C3.87344 55.5 2.60677 57.6667 1.77344 58.5" stroke="#F8F8F8" stroke-width="2" stroke-linecap="round" stroke-linejoin="round"/>
</svg>
