<svg width="89" height="39" viewBox="0 0 89 39" fill="none" xmlns="http://www.w3.org/2000/svg">
    <path d="M26.9934 21.1476C26.6121 21.1809 26.2632 21.1605 25.947 21.0862C25.631 21.0158 25.354 20.8969 25.1159 20.7295C24.8738 20.5625 24.6812 20.3558 24.5381 20.1096C24.3989 19.8629 24.3157 19.584 24.2885 19.2727C24.2657 19.0119 24.2851 18.7632 24.3467 18.5265C24.4119 18.2855 24.5129 18.0728 24.6497 17.8883C24.7864 17.7038 24.9519 17.556 25.1461 17.4449C25.3399 17.3299 25.5497 17.2625 25.7754 17.2428C26.0556 17.2183 26.2971 17.2677 26.5001 17.3911C26.703 17.5145 26.8386 17.6968 26.9067 17.9378C26.4903 17.9743 26.1693 18.1141 25.9435 18.3574C25.836 18.4726 25.7557 18.6091 25.7029 18.7666C25.6539 18.9238 25.6374 19.0939 25.6534 19.2768C25.684 19.627 25.8096 19.8964 26.0299 20.0849C26.2539 20.2692 26.539 20.3462 26.8854 20.3159C27.0916 20.2979 27.281 20.2441 27.4535 20.1545C27.6257 20.061 27.7722 19.9423 27.8929 19.7984C28.0137 19.6545 28.101 19.4881 28.1551 19.2991C28.2127 19.1058 28.2323 18.9041 28.2139 18.694C28.1799 18.3048 28.0121 17.9117 27.7108 17.5146C27.5914 17.3603 27.4607 17.211 27.3187 17.0666C27.1802 16.9179 26.9867 16.7231 26.7382 16.4821C26.5154 16.2664 26.3284 16.0788 26.1772 15.9195C26.0261 15.7602 25.8882 15.5958 25.7635 15.4263C25.4611 15.0176 25.2917 14.605 25.2553 14.1886C25.2281 13.8773 25.269 13.5835 25.3782 13.3073C25.487 13.0273 25.6553 12.7773 25.8831 12.5574C26.1109 12.3374 26.3834 12.1587 26.7008 12.0212C27.0181 11.8836 27.3655 11.7983 27.743 11.7653C28.3851 11.7091 28.914 11.8158 29.3297 12.0852C29.5294 12.2168 29.6869 12.3814 29.8022 12.5791C29.9215 12.7765 29.9921 13.0017 30.0143 13.2546C30.0432 13.5854 29.9832 13.8632 29.8343 14.088C29.7653 14.1959 29.6748 14.2823 29.5628 14.347C29.4547 14.4113 29.3365 14.4491 29.2081 14.4603C28.9084 14.4866 28.6543 14.3833 28.4458 14.1506C28.588 14.0284 28.6941 13.874 28.764 13.6875C28.8375 13.4968 28.8653 13.2983 28.8472 13.0921C28.8247 12.8352 28.7312 12.6395 28.5665 12.5049C28.4014 12.3664 28.1866 12.3088 27.922 12.3319C27.7624 12.3459 27.6171 12.388 27.486 12.4583C27.3588 12.5282 27.2533 12.6218 27.1694 12.7389C27.0817 12.8564 27.017 12.9914 26.9755 13.1441C26.9378 13.2964 26.9267 13.4601 26.942 13.6352C26.9638 13.8842 27.0431 14.1184 27.1799 14.3378C27.3167 14.5572 27.505 14.7819 27.7447 15.0119C27.9594 15.2244 28.1894 15.4337 28.4349 15.6396C29.0079 16.1385 29.426 16.6371 29.6892 17.1356C29.8445 17.4318 29.9383 17.7647 29.9707 18.1344C30.0047 18.5236 29.9566 18.8924 29.8263 19.2411C29.6957 19.5858 29.4933 19.8937 29.219 20.1647C28.945 20.4396 28.6175 20.6624 28.2364 20.833C27.8552 21.0035 27.4409 21.1084 26.9934 21.1476ZM33.5902 21.7232C33.3723 21.7423 33.1807 21.7493 33.0156 21.7441C32.8505 21.739 32.6927 21.7057 32.5422 21.6444C32.1487 21.4945 31.928 21.1452 31.88 20.5965C31.8569 20.3319 31.87 20.0112 31.9193 19.6344C31.9726 19.2572 32.0583 18.8478 32.1765 18.4061C32.4366 17.4344 32.7816 16.4926 33.2116 15.5805C32.8167 15.6386 32.5068 15.7265 32.2818 15.8442C32.0604 15.9577 31.9214 16.1169 31.8648 16.3218C31.8998 16.3188 31.9384 16.3566 31.9806 16.4352C32.0228 16.5139 32.0476 16.596 32.0551 16.6816C32.0673 16.8217 32.013 16.9402 31.8921 17.037C31.7712 17.1339 31.6154 17.1906 31.4247 17.2073C31.2106 17.226 31.0304 17.183 30.884 17.0781C30.7295 16.9701 30.6423 16.8032 30.6226 16.5775C30.6052 16.3791 30.649 16.1851 30.754 15.9955C30.8586 15.8021 31.0161 15.6295 31.2263 15.4778C31.4401 15.3218 31.6916 15.194 31.9809 15.0941C32.2737 14.9901 32.5914 14.9231 32.9338 14.8931C33.1011 14.8785 33.3103 14.872 33.5614 14.8735C34.1385 13.7604 34.7355 12.8749 35.3524 12.2171C36.0697 11.4524 36.7552 11.0415 37.409 10.9843C37.7981 10.9503 38.1183 10.9791 38.3694 11.0709L37.2653 20.0313L35.5434 20.1819L36.0803 15.7648C35.7808 15.6577 35.5017 15.5821 35.2429 15.5381C34.9881 15.4937 34.7215 15.472 34.4432 15.4728C34.0772 16.489 33.7949 17.5195 33.5961 18.5642C33.3899 19.6135 33.3141 20.4495 33.3685 21.0721C33.3954 21.3795 33.4693 21.5966 33.5902 21.7232ZM36.5549 11.9119C36.2249 12.129 35.8919 12.513 35.5558 13.0639C35.2272 13.6102 34.925 14.2347 34.6492 14.9372C35.2032 14.9946 35.7017 15.0901 36.1448 15.2239L36.5549 11.9119ZM41.1038 11.4669C40.5544 11.7306 40.1437 12.1018 39.8719 12.5804C39.6037 13.0548 39.4983 13.6208 39.5558 14.2785C39.5776 14.5275 39.6222 14.7236 39.6896 14.8667C39.7096 14.916 39.733 14.959 39.7597 14.9959C39.7777 15.0218 39.7879 15.0483 39.7902 15.0755C39.3583 15.1133 39.0356 15.0553 38.8222 14.9014C38.584 14.7341 38.4467 14.4422 38.4103 14.0258C38.3875 13.7651 38.4214 13.5033 38.5122 13.2405C38.6025 12.9738 38.7405 12.7127 38.926 12.4573C39.1008 12.2146 39.3139 11.9842 39.5654 11.7661C39.8204 11.5439 40.0993 11.3469 40.4019 11.1754C41.0372 10.8179 41.6817 10.6105 42.3355 10.5533C42.5145 10.5376 42.6747 10.5315 42.8162 10.5348L43.5647 17.8803L45.4401 10.3405L46.2748 10.2675L43.7328 19.4654L42.0108 19.6161L41.1038 11.4669ZM48.5089 19.2652C48.1353 19.2979 47.8035 19.2701 47.5134 19.1817C47.2237 19.0973 46.9786 18.9619 46.778 18.7755C46.5862 18.6002 46.4345 18.3899 46.3228 18.1448C46.2151 17.8994 46.1488 17.6346 46.124 17.3505C46.0964 17.0353 46.1189 16.7099 46.1915 16.3742C46.2637 16.0345 46.3827 15.7143 46.5486 15.4136C46.7172 15.1008 46.9286 14.8275 47.1826 14.5935C47.4405 14.3592 47.7348 14.1825 48.0655 14.0633C47.8008 13.9061 47.5973 13.7083 47.4549 13.4698C47.3163 13.2309 47.2348 12.9714 47.2103 12.6913C47.1834 12.3838 47.2209 12.0728 47.3227 11.758C47.4281 11.439 47.5869 11.1467 47.7989 10.8811C48.0177 10.6032 48.2803 10.3783 48.5868 10.2064C48.8969 10.0302 49.2368 9.926 49.6064 9.89365C49.8438 9.87288 50.0705 9.88639 50.2864 9.93415C50.502 9.97803 50.6911 10.0556 50.8537 10.1668C51.0245 10.2813 51.1609 10.4282 51.2628 10.6075C51.3648 10.7868 51.4263 10.997 51.4474 11.2383C51.4628 11.4134 51.4537 11.5789 51.4203 11.7348C51.3869 11.8906 51.3342 12.0285 51.2624 12.1485C51.1905 12.2685 51.1029 12.3644 50.9994 12.4362C50.8958 12.508 50.7857 12.549 50.669 12.5592C50.4511 12.5783 50.2549 12.4876 50.0805 12.2872C50.1446 12.2581 50.2067 12.2056 50.2667 12.1298C50.3264 12.05 50.3771 11.9574 50.4189 11.8518C50.457 11.7504 50.4848 11.6421 50.5022 11.5269C50.5196 11.4116 50.5236 11.3015 50.5145 11.1964C50.4947 10.9707 50.4115 10.8035 50.2647 10.6948C50.1433 10.6074 49.9873 10.572 49.7966 10.5887C49.6254 10.6037 49.468 10.6645 49.3244 10.7712C49.1808 10.8779 49.0617 11.0177 48.967 11.1906C48.872 11.3597 48.8023 11.5482 48.7577 11.756C48.717 11.9634 48.7059 12.1722 48.7243 12.3824C48.7573 12.7598 48.8791 13.0766 49.0897 13.3326C49.3187 13.6185 49.6462 13.7996 50.0725 13.876C49.6756 14.0009 49.3201 14.2398 49.0059 14.5928C48.7243 14.9154 48.5084 15.2931 48.358 15.7258C48.2116 16.1582 48.1542 16.5553 48.1858 16.9172C48.2175 17.2791 48.3301 17.5575 48.5236 17.7523C48.7386 17.9688 49.0387 18.0601 49.4239 18.0264C49.6146 18.0098 49.8128 17.9669 50.0185 17.898C50.2278 17.8248 50.4253 17.7291 50.611 17.6109C51.0423 17.3418 51.3485 17.0091 51.5295 16.6129L51.8145 16.7115C51.5596 17.4279 51.127 18.0186 50.5168 18.4837C50.2225 18.7055 49.9047 18.8823 49.5633 19.0142C49.2223 19.1499 48.8708 19.2335 48.5089 19.2652ZM55.4606 10.9225L54.3282 11.0216L54.4203 10.4606C54.86 10.4222 55.2643 10.3378 55.6333 10.2075C56.215 9.99972 56.7972 9.68411 57.3797 9.26064L56.2591 18.3695L54.5372 18.5202L55.4606 10.9225ZM60.3852 18.0674C59.677 18.1293 59.123 18.0268 58.7232 17.7599C58.3273 17.4926 58.1048 17.0787 58.0558 16.5184C58.0344 16.2732 58.0516 16.0443 58.1075 15.8316C58.1634 15.6189 58.2547 15.4305 58.3815 15.2665C58.6387 14.9342 58.9969 14.748 59.4561 14.7078C59.9425 14.6653 60.2443 14.8428 60.3614 15.2403C60.034 15.3082 59.7818 15.4498 59.6045 15.6653C59.4309 15.8766 59.3575 16.1359 59.3844 16.4433C59.4089 16.7235 59.5099 16.9362 59.6873 17.0815C59.8647 17.2267 60.0954 17.2869 60.3795 17.2621C60.6091 17.242 60.8165 17.1709 61.0019 17.0488C61.1909 16.9225 61.3465 16.752 61.4689 16.5374C61.5916 16.3267 61.6782 16.0838 61.7287 15.8089C61.783 15.5335 61.7962 15.2363 61.7683 14.9172C61.7196 14.3608 61.5675 13.9447 61.3121 13.6691C61.0601 13.3892 60.7241 13.2676 60.3038 13.3044C60.082 13.3238 59.8485 13.3893 59.6034 13.5009C59.358 13.6087 59.0858 13.7697 58.7869 13.9841L58.6133 13.8816L59.1456 9.27671C59.9953 9.30824 60.6673 9.30238 61.1615 9.25915C61.5195 9.22782 61.8636 9.17223 62.1939 9.09236C62.5277 9.00826 62.8683 8.89024 63.2157 8.73828C63.2418 8.85755 63.2612 8.98918 63.2738 9.13316C63.3096 9.54176 63.2368 9.87554 63.0556 10.1345C62.8498 10.427 62.5057 10.5943 62.0231 10.6366C61.7624 10.6594 61.4065 10.6474 60.9554 10.6006C60.8016 10.5905 60.6255 10.5726 60.4272 10.5468L60.0008 10.5135L59.7116 12.721C60.1918 12.428 60.6751 12.2602 61.1616 12.2177C61.4806 12.1897 61.7755 12.2208 62.0461 12.3109C62.3167 12.4009 62.5547 12.5448 62.7602 12.7424C62.9658 12.9401 63.1306 13.1884 63.2548 13.4873C63.379 13.7862 63.4574 14.1225 63.4901 14.496C63.5323 14.9786 63.4892 15.4274 63.3608 15.8425C63.2364 16.2573 63.0372 16.6257 62.7635 16.9476C62.4933 17.2653 62.1548 17.5204 61.7482 17.7128C61.3415 17.9053 60.8872 18.0234 60.3852 18.0674ZM65.459 13.4709C64.5484 13.5506 64.0412 12.997 63.9374 11.8101C63.8979 11.3587 63.9209 10.9273 64.0065 10.516C64.0959 10.1043 64.2404 9.73872 64.4399 9.41934C64.6355 9.1003 64.8738 8.84417 65.155 8.65097C65.4361 8.45776 65.7439 8.34652 66.0786 8.31724C67.0048 8.23622 67.5199 8.79108 67.6241 9.98185C67.6629 10.4255 67.6355 10.8514 67.5418 11.2595C67.452 11.6673 67.3075 12.0329 67.1084 12.3561C66.9092 12.6794 66.6673 12.9398 66.3827 13.1372C66.0977 13.3308 65.7898 13.442 65.459 13.4709ZM69.8319 8.12415L70.69 8.04908L66.5032 17.4733L65.6452 17.5484L69.8319 8.12415ZM65.5854 12.9658C65.7372 12.9525 65.8777 12.8559 66.007 12.676C66.1399 12.4918 66.2499 12.247 66.3369 11.9413C66.4238 11.6357 66.4816 11.2876 66.5101 10.8969C66.5384 10.5023 66.5343 10.0968 66.4978 9.68042C66.4703 9.36522 66.4231 9.13996 66.3564 9.00464C66.2861 8.87354 66.1848 8.81379 66.0525 8.82536C65.9007 8.83864 65.7566 8.93947 65.6202 9.12786C65.4876 9.31591 65.374 9.56309 65.2792 9.86939C65.1844 10.1757 65.1163 10.5169 65.0747 10.8931C65.037 11.2689 65.0343 11.6416 65.0666 12.0113C65.0966 12.3537 65.1536 12.6017 65.2376 12.7551C65.3177 12.9088 65.4336 12.9791 65.5854 12.9658ZM70.2743 17.2139C69.3637 17.2936 68.8565 16.74 68.7526 15.5531C68.7131 15.1017 68.7363 14.6723 68.8222 14.2648C68.9117 13.8531 69.0562 13.4876 69.2557 13.1682C69.4513 12.8491 69.6896 12.593 69.9707 12.3998C70.2518 12.2066 70.5597 12.0954 70.8944 12.0661C71.8205 11.9851 72.3355 12.538 72.4393 13.7249C72.4782 14.1685 72.4507 14.5944 72.357 15.0025C72.2672 15.4103 72.1228 15.7759 71.9236 16.0991C71.7245 16.4224 71.4826 16.6828 71.1979 16.8802C70.9129 17.0738 70.605 17.185 70.2743 17.2139ZM70.4006 16.7088C70.5524 16.6955 70.693 16.5989 70.8223 16.419C70.9552 16.2349 71.0651 15.99 71.1521 15.6843C71.2391 15.3787 71.2968 15.0306 71.3254 14.6399C71.354 14.2492 71.35 13.8456 71.3136 13.4293C71.286 13.1141 71.2389 12.8888 71.1721 12.7535C71.1018 12.6224 71.0005 12.5626 70.8682 12.5742C70.6698 12.5916 70.4826 12.7609 70.3068 13.0821C70.1417 13.3906 70.0194 13.7856 69.94 14.267C69.858 14.7643 69.8386 15.2601 69.8819 15.7543C69.9118 16.0967 69.9688 16.3447 70.0528 16.4981C70.1329 16.6519 70.2489 16.7221 70.4006 16.7088Z" fill="#5860A6"/>
    <path d="M20.75 24.9707C17.9167 28.6374 9.95 35.9707 0.75 35.9707M0.75 35.9707L4.75 30.4707M0.75 35.9707C2.08333 36.6374 5.65 37.8707 9.25 37.4707" stroke="#5860A6" stroke-width="1.5" stroke-linecap="round" stroke-linejoin="round"/>
    <path d="M29.2499 3.47067C39.2499 1.304 62.9499 -1.52933 77.7499 4.47067C96.2499 11.9707 89.2499 26.4707 46.2499 26.9707C3.24986 27.4707 -5.75014 12.9706 33.7499 3.47067C65.3499 -4.12928 80.9166 5.97073 84.75 11.9707" stroke="#5860A6" stroke-width="1.5" stroke-linecap="round" stroke-linejoin="round"/>
</svg>
